<svg width="108" height="108" viewBox="0 0 108 108" fill="none" xmlns="http://www.w3.org/2000/svg">
<g filter="url(#filter0_d_301_323)">
<path d="M54 100C81.6142 100 104 77.6142 104 50C104 32.5983 95.1102 17.2728 81.6243 8.3174L85.4917 15.4696L87.1492 20.442L88.8066 25.4144C89.3591 30.663 88.9366 33.8803 88.8066 34.5304C88.0975 38.0759 87.5233 40.2056 86.9108 42.4771C86.8074 42.8604 86.703 43.2476 86.5967 43.6464L81.6243 51.6575L74.442 58.2873L71.6796 60.221L69.1934 61.6022C64.7735 63.8122 61.4586 65.3039 57.5912 66.8508C56.2099 67.4033 50.4088 68.9687 44.884 69.8895C44.8045 69.9027 44.7219 69.9166 44.6359 69.9311C42.927 70.2181 39.8701 70.7315 33.558 70.9945C33.3681 71.0024 32.9499 70.986 32.3624 70.9629C28.7934 70.8227 18.9618 70.4364 15.8785 73.7569L14.5734 76.3812L13.2683 79.0055C22.3343 91.7139 37.1995 100 54 100Z" fill="#489F32"/>
<path d="M54 0C26.3858 0 4 22.3858 4 50C4 60.8137 7.43287 70.8257 13.2683 79.0055L14.5734 76.3812L15.8785 73.7569C18.9618 70.4364 28.7934 70.8227 32.3624 70.9629C32.9499 70.986 33.3681 71.0024 33.558 70.9945C39.8701 70.7315 42.927 70.2181 44.6359 69.9311C44.7219 69.9166 44.8045 69.9027 44.884 69.8895C50.4088 68.9687 56.2099 67.4033 57.5912 66.8508C61.4586 65.3039 64.7735 63.8122 69.1934 61.6022L71.6796 60.221L74.442 58.2873L81.6243 51.6575L86.5967 43.6464C86.703 43.2476 86.8074 42.8604 86.9108 42.4771C87.5233 40.2056 88.0975 38.0759 88.8066 34.5304C88.9366 33.8803 89.3591 30.663 88.8066 25.4144L87.1492 20.442L85.4917 15.4696L81.6243 8.3174C73.7099 3.06175 64.2125 0 54 0Z" fill="#6ECB56"/>
</g>
<defs>
<filter id="filter0_d_301_323" x="0" y="0" width="108" height="108" filterUnits="userSpaceOnUse" color-interpolation-filters="sRGB">
<feFlood flood-opacity="0" result="BackgroundImageFix"/>
<feColorMatrix in="SourceAlpha" type="matrix" values="0 0 0 0 0 0 0 0 0 0 0 0 0 0 0 0 0 0 127 0" result="hardAlpha"/>
<feOffset dy="4"/>
<feGaussianBlur stdDeviation="2"/>
<feComposite in2="hardAlpha" operator="out"/>
<feColorMatrix type="matrix" values="0 0 0 0 0 0 0 0 0 0 0 0 0 0 0 0 0 0 0.25 0"/>
<feBlend mode="normal" in2="BackgroundImageFix" result="effect1_dropShadow_301_323"/>
<feBlend mode="normal" in="SourceGraphic" in2="effect1_dropShadow_301_323" result="shape"/>
</filter>
</defs>
</svg>
